<svg width="161" height="24" viewBox="0 0 161 24" fill="none" xmlns="http://www.w3.org/2000/svg">
  <g clip-path="url(#clip0_26055_87)">
    <path d="M59.3916 5.38672L57.3633 7.41113L57.4492 7.55664C58.6224 9.54037 58.6867 11.7392 57.6279 13.5908C56.4906 15.5812 54.2791 16.8193 51.8564 16.8193C51.1611 16.8193 50.4587 16.719 49.7656 16.5176L49.6738 16.4902L49.5908 16.54C48.9023 16.9542 48.7473 17.6834 48.8975 18.2207C49.0702 18.8386 49.6082 19.2401 50.2676 19.2402L51.6699 19.2422C56.1116 19.2422 59.3358 18.5591 60.0156 24.002H56.249C56.0381 22.9833 55.1265 22.6113 54.0273 22.6113H49.4648C48.1258 22.6113 46.9617 22.182 46.1855 21.4053C45.5328 20.7493 45.1889 19.8691 45.1934 18.8594C45.1799 17.422 45.9227 16.0117 47.042 15.3467L47.2891 15.1982L47.0801 15.001C45.8823 13.8569 45.2744 12.4197 45.2744 10.7227C45.243 9.14415 45.7969 7.73315 46.876 6.63379C48.1187 5.36891 49.9291 4.64363 51.8447 4.64355C52.7128 4.64355 53.5543 4.79366 54.3506 5.08691L54.4805 5.13672L56.8096 2.80957L59.3916 5.38672ZM100.552 4.58105C102.678 4.58105 104.457 5.27721 105.891 6.67188C107.324 8.06678 108.04 9.79834 108.04 11.8672C108.04 13.9359 107.322 15.6689 105.891 17.0615C104.457 18.4562 102.678 19.1523 100.552 19.1523C99.0533 19.1523 97.7298 18.7986 96.5723 18.1045V24H93.0234V4.91504H96.5723V5.62891C97.7275 4.93483 99.0533 4.58107 100.552 4.58105ZM132.133 4.58984C134.188 4.58984 135.989 5.19929 137.537 6.41504L135.816 8.78613C134.677 7.93314 133.477 7.50781 132.214 7.50781C131.575 7.50783 131.048 7.61079 130.64 7.81445C130.231 8.01817 130.024 8.31559 130.024 8.70508C130.024 8.92674 130.088 9.11947 130.211 9.28516C130.334 9.4508 130.54 9.59229 130.825 9.71094C131.11 9.82961 131.386 9.92778 131.653 10.0039C131.92 10.08 132.288 10.1652 132.762 10.2637C133.17 10.3532 133.499 10.4298 133.748 10.4902C133.997 10.5529 134.323 10.6489 134.722 10.7832C135.123 10.9153 135.449 11.0496 135.702 11.1816C135.956 11.316 136.232 11.4955 136.53 11.7217C136.828 11.9477 137.062 12.1889 137.23 12.4463C137.399 12.7038 137.544 13.0199 137.663 13.3916C137.784 13.7654 137.843 14.1683 137.843 14.6025C137.843 15.5518 137.576 16.3783 137.042 17.0791C136.508 17.7799 135.797 18.3042 134.906 18.6445C134.016 18.9871 133.006 19.1572 131.878 19.1572L131.462 19.1484C129.379 19.0652 127.562 18.3582 126.012 17.0254L127.731 14.6816C128.916 15.7115 130.271 16.2265 131.801 16.2266C132.53 16.2266 133.124 16.1094 133.582 15.8789C134.04 15.6483 134.269 15.3284 134.269 14.9209C134.269 14.6992 134.204 14.5019 134.076 14.334C133.948 14.1661 133.739 14.0186 133.454 13.8955C133.169 13.7702 132.896 13.6694 132.634 13.5889C132.371 13.5083 132.003 13.4161 131.532 13.3086C131.211 13.2369 130.958 13.1815 130.771 13.1367C130.585 13.0919 130.329 13.0225 130.004 12.9307C129.679 12.8389 129.416 12.7515 129.217 12.6709C129.017 12.5903 128.78 12.4825 128.504 12.3438C128.228 12.2072 128.003 12.0659 127.828 11.9248C127.655 11.7838 127.474 11.6089 127.281 11.4053C127.091 11.2015 126.938 10.9845 126.828 10.7539C126.716 10.5234 126.625 10.2572 126.554 9.95508C126.482 9.65295 126.448 9.33027 126.448 8.9834C126.448 8.03406 126.711 7.22082 127.236 6.54688C127.761 5.87301 128.443 5.37819 129.284 5.0625C130.125 4.74685 131.074 4.58989 132.133 4.58984ZM144.851 4.58984C146.905 4.58984 148.707 5.19925 150.255 6.41504L148.534 8.78613C147.395 7.93312 146.195 7.50787 144.932 7.50781C144.292 7.50781 143.765 7.6107 143.356 7.81445C142.948 8.01816 142.742 8.31567 142.742 8.70508C142.742 8.92665 142.804 9.11952 142.928 9.28516C143.051 9.45084 143.258 9.59227 143.543 9.71094C143.828 9.82949 144.103 9.92782 144.37 10.0039C144.637 10.08 145.005 10.1652 145.479 10.2637C145.887 10.3532 146.217 10.4298 146.466 10.4902C146.715 10.5529 147.04 10.6489 147.439 10.7832C147.841 10.9153 148.166 11.0495 148.42 11.1816C148.673 11.316 148.949 11.4956 149.247 11.7217C149.545 11.9477 149.779 12.1889 149.947 12.4463C150.116 12.7038 150.262 13.0199 150.381 13.3916C150.502 13.7654 150.562 14.1684 150.562 14.6025C150.562 15.5518 150.295 16.3784 149.762 17.0791C149.228 17.7799 148.516 18.3042 147.626 18.6445C146.735 18.9871 145.725 19.1572 144.597 19.1572L144.18 19.1484C142.097 19.0653 140.279 18.3584 138.729 17.0254L140.449 14.6816C141.634 15.7115 142.989 16.2265 144.519 16.2266C145.248 16.2266 145.842 16.1095 146.3 15.8789C146.757 15.6483 146.986 15.3283 146.986 14.9209C146.986 14.6992 146.921 14.5019 146.793 14.334C146.665 14.1662 146.457 14.0186 146.172 13.8955C145.887 13.7701 145.613 13.6695 145.351 13.5889C145.088 13.5083 144.72 13.416 144.249 13.3086C143.929 13.237 143.675 13.1815 143.489 13.1367C143.303 13.0919 143.047 13.0225 142.722 12.9307C142.397 12.8389 142.134 12.7515 141.935 12.6709C141.735 12.5903 141.497 12.4826 141.221 12.3438C140.945 12.2072 140.721 12.0658 140.546 11.9248C140.373 11.7837 140.191 11.609 139.998 11.4053C139.807 11.2016 139.655 10.9844 139.545 10.7539C139.433 10.5234 139.343 10.2571 139.271 9.95508C139.2 9.65295 139.166 9.33027 139.166 8.9834C139.166 8.03414 139.428 7.22079 139.953 6.54688C140.478 5.87293 141.161 5.3782 142.002 5.0625C142.843 4.74687 143.792 4.58985 144.851 4.58984ZM35.7227 4.58105C37.221 4.58111 38.5469 4.93487 39.7021 5.62891V4.91504H43.251V18.8193H39.7021V18.1045C38.5469 18.7985 37.221 19.1523 35.7227 19.1523C33.5984 19.1523 31.8192 18.4563 30.3857 17.0615C28.9524 15.6667 28.2364 13.9359 28.2363 11.8672C28.2363 9.79834 28.9545 8.06454 30.3857 6.67188C31.8169 5.27719 33.5962 4.58105 35.7227 4.58105ZM67.2881 4.58105C69.4146 4.58107 71.1935 5.27716 72.627 6.67188C74.0582 8.06678 74.7764 9.79834 74.7764 11.8672C74.7763 13.9359 74.0603 15.6667 72.627 17.0615C71.1935 18.4563 69.4146 19.1523 67.2881 19.1523C65.1615 19.1523 63.38 18.4564 61.9443 17.0615C60.5065 15.6689 59.7892 13.9359 59.7891 11.8672C59.7891 9.79834 60.5064 8.06678 61.9443 6.67188C63.38 5.27707 65.1615 4.58105 67.2881 4.58105ZM116.931 4.58105C118.429 4.58111 119.753 4.93486 120.91 5.62891V4.91504H124.459V18.8193H120.91V18.1045C119.755 18.7985 118.429 19.1523 116.931 19.1523C114.804 19.1523 113.024 18.4564 111.591 17.0615C110.158 15.6667 109.442 13.9358 109.442 11.8672C109.442 9.79835 110.16 8.06454 111.591 6.67188C113.024 5.27697 114.804 4.58105 116.931 4.58105ZM7.87793 0C9.23065 0 10.5031 0.239601 11.6943 0.71875C12.8854 1.19785 13.9057 1.85404 14.7559 2.68457C15.6061 3.51524 16.2746 4.51178 16.7637 5.67383C17.2527 6.83811 17.498 8.08104 17.498 9.4043C17.498 10.7274 17.2526 11.9697 16.7637 13.1338C16.2746 14.2958 15.6061 15.2947 14.7559 16.1299C13.9057 16.9649 12.8854 17.6215 11.6943 18.1006C10.5009 18.5797 9.22841 18.8193 7.87793 18.8193H0.5V0H7.87793ZM27.6846 8.35156H27.083C25.8202 8.35161 24.8355 8.69882 24.1289 9.39062C23.4201 10.0825 23.0674 11.0227 23.0674 12.2139V18.8193H19.5186V4.91504H23.0674V6.71289C24.1351 5.36284 25.4724 4.68856 27.083 4.68848H27.6846V8.35156ZM84.7725 4.58105C86.4189 4.58107 87.7357 5.07122 88.7295 6.05176C89.721 7.03241 90.2168 8.34022 90.2168 9.97461V18.8193H86.6543V11.1211C86.6543 10.1808 86.3765 9.42846 85.8203 8.86426C85.2641 8.30012 84.5236 8.01767 83.5996 8.01758C82.6754 8.01758 81.8453 8.30947 81.2441 8.8916C80.6429 9.47375 80.3418 10.2391 80.3418 11.1885V18.8193H76.793V4.91504H80.3418V6.45996C81.4635 5.20835 82.9397 4.58105 84.7725 4.58105ZM35.7246 8.01758C34.6209 8.01758 33.7074 8.38503 32.9873 9.11719C32.2651 9.84932 31.9062 10.7679 31.9062 11.8672C31.9063 12.9662 32.2674 13.8842 32.9873 14.6162C33.7097 15.3484 34.6321 15.7158 35.7246 15.7158C36.8171 15.7158 37.7299 15.346 38.459 14.6094C39.188 13.8728 39.5536 12.9574 39.5537 11.8672C39.5537 10.7768 39.1881 9.86066 38.459 9.12402C37.7299 8.3852 36.8283 8.01759 35.7246 8.01758ZM67.2881 8.01758C66.1844 8.01758 65.2828 8.38748 64.5537 9.12402C63.8246 9.86066 63.459 10.7768 63.459 11.8672C63.4591 12.9574 63.8247 13.8728 64.5537 14.6094C65.2828 15.346 66.1956 15.7158 67.2881 15.7158C68.3917 15.7158 69.3021 15.3505 70.0244 14.6162C70.7444 13.8841 71.1064 12.9686 71.1064 11.8672C71.1064 10.7656 70.7468 9.84935 70.0244 9.11719C69.3044 8.38522 68.3916 8.0176 67.2881 8.01758ZM100.552 8.01758C99.4593 8.01761 98.5464 8.38744 97.8174 9.12402C97.0883 9.86066 96.7227 10.7768 96.7227 11.8672C96.7227 12.9574 97.0884 13.8728 97.8174 14.6094C98.5464 15.3482 99.4481 15.7158 100.552 15.7158C101.655 15.7158 102.569 15.3484 103.289 14.6162C104.011 13.8842 104.37 12.9663 104.37 11.8672C104.37 10.7679 104.009 9.84933 103.289 9.11719C102.567 8.38503 101.644 8.01758 100.552 8.01758ZM116.931 8.01758C115.827 8.01758 114.913 8.38503 114.193 9.11719C113.471 9.84934 113.112 10.7678 113.112 11.8672C113.112 12.9663 113.473 13.8842 114.193 14.6162C114.916 15.3484 115.838 15.7158 116.931 15.7158C118.023 15.7157 118.936 15.3459 119.665 14.6094C120.394 13.8729 120.76 12.9573 120.76 11.8672C120.76 10.7768 120.394 9.86065 119.665 9.12402C118.936 8.38522 118.034 8.01765 116.931 8.01758ZM4.27734 15.2725H7.7998V15.2764C9.46208 15.2764 10.8488 14.7172 11.957 13.5977C13.0651 12.4782 13.6191 11.0806 13.6191 9.40137C13.6191 7.72244 13.0649 6.32779 11.957 5.21289C10.8488 4.09787 9.46432 3.54005 7.7998 3.54004H4.27734V15.2725ZM51.7734 7.92578C50.2346 7.92578 48.9845 9.17312 48.9844 10.709C48.9844 12.2449 50.2345 13.4922 51.7734 13.4922C53.3123 13.4921 54.5615 12.2449 54.5615 10.709C54.5614 9.17319 53.3144 7.9259 51.7734 7.92578Z" fill="#0A2333"/>
    <path d="M160.5 3.96093C160.5 6.08799 158.773 7.80979 156.644 7.80979C154.515 7.80979 152.787 6.08575 152.787 3.96093C152.787 1.8361 154.515 0.112061 156.644 0.112061C158.773 0.112061 160.5 1.8361 160.5 3.96093Z" fill="#FA4A3D"/>
  </g>
  <defs>
    <clipPath id="clip0_26055_87">
      <rect width="160" height="24" fill="white" transform="translate(0.5)"/>
    </clipPath>
  </defs>
</svg>
